<svg width="24" height="24" viewBox="0 0 24 24" fill="none" xmlns="http://www.w3.org/2000/svg">
<path d="M23.0625 6.00171C22.5845 6.01519 22.115 6.13137 21.6859 6.34235C20.76 6.80533 20.25 7.68321 20.25 8.81421V11.5812L19.3479 12.4833C19.1698 11.3058 18.1685 10.6255 18.1245 10.5962C18.0163 10.524 17.8865 10.4916 17.7571 10.5045C17.6277 10.5173 17.5067 10.5745 17.4148 10.6665L12.9148 15.1665C12.8093 15.272 12.75 15.415 12.75 15.5642V23.0642C12.75 23.2134 12.8093 23.3565 12.9148 23.462C13.0202 23.5674 13.1633 23.6267 13.3125 23.6267C13.4617 23.6267 13.6048 23.5674 13.7102 23.462C13.8157 23.3565 13.875 23.2134 13.875 23.0642V15.7972L17.8322 11.84C18.0146 12.0486 18.2102 12.3531 18.2447 12.7242C18.2932 13.248 18.014 13.8173 17.415 14.4164L15.165 16.6664C15.0609 16.7722 15.0029 16.9148 15.0035 17.0632C15.0041 17.2116 15.0633 17.3537 15.1682 17.4587C15.2732 17.5636 15.4153 17.6228 15.5637 17.6234C15.7121 17.624 15.8547 17.566 15.9605 17.4619L18.2105 15.2119L21.2105 12.2119C21.3159 12.1064 21.375 11.9633 21.375 11.8142V8.81421C21.375 8.11413 21.6319 7.63947 22.1605 7.36315C22.2692 7.30682 22.3828 7.26063 22.5 7.22515V13.1103L18.8804 17.4539C18.7961 17.555 18.7499 17.6825 18.75 17.8142V23.0642C18.75 23.2134 18.8093 23.3565 18.9148 23.462C19.0202 23.5674 19.1633 23.6267 19.3125 23.6267C19.4617 23.6267 19.6048 23.5674 19.7102 23.462C19.8157 23.3565 19.875 23.2134 19.875 23.0642V18.0179L23.4946 13.6743C23.5789 13.5732 23.625 13.4458 23.625 13.3142V6.56421C23.625 6.41502 23.5657 6.27195 23.4602 6.16646C23.3548 6.06097 23.2117 6.00171 23.0625 6.00171Z" fill="#161722"/>
<path d="M6.21023 10.6665C6.11829 10.5745 5.99733 10.5173 5.86794 10.5045C5.73854 10.4916 5.6087 10.524 5.5005 10.5962C5.45653 10.6255 4.45519 11.3058 4.27706 12.4833L3.375 11.5812V8.81421C3.375 7.68321 2.86505 6.80533 1.93908 6.34235C1.50997 6.13137 1.04048 6.01519 0.5625 6.00171C0.413316 6.00171 0.270242 6.06097 0.164752 6.16646C0.0592632 6.27195 0 6.41502 0 6.56421V13.3142C-2.2017e-06 13.4458 0.046126 13.5732 0.130359 13.6743L3.75 18.0179V23.0642C3.75 23.2134 3.80926 23.3565 3.91475 23.462C4.02024 23.5674 4.16332 23.6267 4.3125 23.6267C4.46168 23.6267 4.60476 23.5674 4.71025 23.462C4.81574 23.3565 4.875 23.2134 4.875 23.0642V17.8142C4.875 17.6826 4.82887 17.5552 4.74464 17.4541L1.125 13.1105V7.22557C1.23188 7.25785 1.33588 7.29899 1.43592 7.34857C1.9837 7.62246 2.25 8.10171 2.25 8.81421V11.8142C2.25001 11.9634 2.30927 12.1065 2.41477 12.2119L5.41477 15.2119L7.66477 17.4619C7.77054 17.566 7.91316 17.6241 8.06155 17.6235C8.20994 17.6229 8.35208 17.5636 8.45701 17.4587C8.56194 17.3538 8.62115 17.2116 8.62176 17.0633C8.62236 16.9149 8.5643 16.7723 8.46023 16.6665L6.21023 14.4165C5.61112 13.8173 5.33194 13.248 5.38055 12.7243C5.41491 12.3529 5.6107 12.0483 5.79305 11.8399L9.75 15.7972V23.0642C9.75 23.2134 9.80926 23.3565 9.91475 23.462C10.0202 23.5674 10.1633 23.6267 10.3125 23.6267C10.4617 23.6267 10.6048 23.5674 10.7102 23.462C10.8157 23.3565 10.875 23.2134 10.875 23.0642V15.5642C10.875 15.415 10.8157 15.272 10.7102 15.1665L6.21023 10.6665Z" fill="#161722"/>
<path d="M8.8125 4.87671H10.125V10.3142C10.125 10.4634 10.1843 10.6065 10.2898 10.712C10.3952 10.8174 10.5383 10.8767 10.6875 10.8767H12.9375C13.0867 10.8767 13.2298 10.8174 13.3352 10.712C13.4407 10.6065 13.5 10.4634 13.5 10.3142V4.87671H14.8125C14.9617 4.87671 15.1048 4.81745 15.2102 4.71196C15.3157 4.60647 15.375 4.46339 15.375 4.31421V2.81421C15.375 2.66502 15.3157 2.52195 15.2102 2.41646C15.1048 2.31097 14.9617 2.25171 14.8125 2.25171H13.5V0.564209C13.5 0.415025 13.4407 0.271951 13.3352 0.166461C13.2298 0.0609722 13.0867 0.00170898 12.9375 0.00170898H10.6875C10.5383 0.00170898 10.3952 0.0609722 10.2898 0.166461C10.1843 0.271951 10.125 0.415025 10.125 0.564209V2.25171H8.8125C8.66332 2.25171 8.52024 2.31097 8.41475 2.41646C8.30926 2.52195 8.25 2.66502 8.25 2.81421V4.31421C8.25 4.46339 8.30926 4.60647 8.41475 4.71196C8.52024 4.81745 8.66332 4.87671 8.8125 4.87671ZM9.375 3.37671H10.6875C10.8367 3.37671 10.9798 3.31745 11.0852 3.21196C11.1907 3.10647 11.25 2.96339 11.25 2.81421V1.12671H12.375V2.81421C12.375 2.96339 12.4343 3.10647 12.5398 3.21196C12.6452 3.31745 12.7883 3.37671 12.9375 3.37671H14.25V3.75171H12.9375C12.7883 3.75171 12.6452 3.81097 12.5398 3.91646C12.4343 4.02195 12.375 4.16502 12.375 4.31421V9.75171H11.25V4.31421C11.25 4.16502 11.1907 4.02195 11.0852 3.91646C10.9798 3.81097 10.8367 3.75171 10.6875 3.75171H9.375V3.37671Z" fill="#161722"/>
<path d="M17.25 3.56421C17.25 3.71339 17.3093 3.85647 17.4148 3.96196C17.5202 4.06745 17.6633 4.12671 17.8125 4.12671H18.5625C18.7117 4.12671 18.8548 4.06745 18.9602 3.96196C19.0657 3.85647 19.125 3.71339 19.125 3.56421C19.125 3.41502 19.0657 3.27195 18.9602 3.16646C18.8548 3.06097 18.7117 3.00171 18.5625 3.00171H17.8125C17.6633 3.00171 17.5202 3.06097 17.4148 3.16646C17.3093 3.27195 17.25 3.41502 17.25 3.56421Z" fill="#161722"/>
<path d="M17.1096 1.50187C17.2083 1.50193 17.3052 1.47593 17.3906 1.42649L18.0401 1.05149C18.1046 1.01483 18.1612 0.965767 18.2066 0.907138C18.2521 0.84851 18.2855 0.781471 18.3049 0.70988C18.3244 0.638289 18.3294 0.563561 18.3199 0.489997C18.3103 0.416433 18.2863 0.345487 18.2492 0.281244C18.2121 0.217 18.1627 0.160728 18.1038 0.115667C18.0448 0.0706061 17.9776 0.0376462 17.9059 0.0186851C17.8341 -0.000276115 17.7594 -0.00486406 17.6859 0.00518542C17.6124 0.0152349 17.5416 0.0397233 17.4776 0.0772407L16.8281 0.452241C16.7209 0.514169 16.637 0.60976 16.5897 0.724185C16.5423 0.83861 16.534 0.965472 16.5661 1.08509C16.5982 1.20471 16.6688 1.31039 16.7671 1.38575C16.8654 1.46111 16.9858 1.50192 17.1096 1.50187Z" fill="#161722"/>
<path d="M16.8281 6.67649L17.4776 7.05149C17.6067 7.12491 17.7596 7.14427 17.903 7.10535C18.0463 7.06643 18.1684 6.97239 18.2427 6.84376C18.317 6.71512 18.3374 6.56233 18.2994 6.41872C18.2614 6.27512 18.1682 6.15236 18.0401 6.07724L17.3906 5.70224C17.3266 5.66472 17.2558 5.64023 17.1823 5.63019C17.1088 5.62014 17.034 5.62472 16.9623 5.64368C16.8906 5.66265 16.8233 5.69561 16.7644 5.74067C16.7055 5.78573 16.656 5.842 16.6189 5.90624C16.5819 5.97049 16.5578 6.04143 16.5483 6.115C16.5387 6.18856 16.5438 6.26329 16.5632 6.33488C16.5827 6.40647 16.6161 6.47351 16.6615 6.53214C16.707 6.59077 16.7636 6.63983 16.8281 6.67649Z" fill="#161722"/>
<path d="M5.0625 4.12671H5.8125C5.96168 4.12671 6.10476 4.06745 6.21025 3.96196C6.31574 3.85647 6.375 3.71339 6.375 3.56421C6.375 3.41502 6.31574 3.27195 6.21025 3.16646C6.10476 3.06097 5.96168 3.00171 5.8125 3.00171H5.0625C4.91332 3.00171 4.77024 3.06097 4.66475 3.16646C4.55926 3.27195 4.5 3.41502 4.5 3.56421C4.5 3.71339 4.55926 3.85647 4.66475 3.96196C4.77024 4.06745 4.91332 4.12671 5.0625 4.12671Z" fill="#161722"/>
<path d="M5.58515 1.05142L6.23465 1.42642C6.29864 1.46394 6.36943 1.48843 6.44293 1.49848C6.51643 1.50853 6.59119 1.50394 6.6629 1.48498C6.73462 1.46602 6.80188 1.43306 6.86081 1.388C6.91974 1.34294 6.96917 1.28666 7.00626 1.22242C7.04336 1.15818 7.06737 1.08723 7.07694 1.01367C7.0865 0.940103 7.08141 0.865375 7.06198 0.793784C7.04254 0.722193 7.00914 0.655153 6.96368 0.596525C6.91823 0.537897 6.86164 0.488838 6.79715 0.452173L6.14765 0.0771728C6.01852 0.0037571 5.8656 -0.0156041 5.72225 0.0233141C5.5789 0.0622324 5.45677 0.156271 5.38249 0.284907C5.30822 0.413544 5.28785 0.566336 5.32582 0.70994C5.36378 0.853543 5.45701 0.976301 5.58515 1.05142Z" fill="#161722"/>
<path d="M6.23464 5.70224L5.58514 6.07724C5.52065 6.11391 5.46405 6.16297 5.4186 6.22159C5.37315 6.28022 5.33975 6.34726 5.32031 6.41885C5.30087 6.49044 5.29579 6.56517 5.30535 6.63874C5.31491 6.7123 5.33893 6.78324 5.37602 6.84749C5.41312 6.91173 5.46255 6.968 5.52148 7.01307C5.58041 7.05813 5.64766 7.09109 5.71938 7.11005C5.7911 7.12901 5.86586 7.1336 5.93936 7.12355C6.01286 7.1135 6.08364 7.08901 6.14764 7.05149L6.79714 6.67649C6.86163 6.63983 6.91823 6.59077 6.96368 6.53214C7.00913 6.47351 7.04253 6.40647 7.06197 6.33488C7.08141 6.26329 7.08649 6.18856 7.07693 6.115C7.06737 6.04143 7.04335 5.97049 7.00626 5.90624C6.96916 5.842 6.91973 5.78573 6.8608 5.74067C6.80188 5.69561 6.73462 5.66265 6.6629 5.64368C6.59118 5.62472 6.51642 5.62014 6.44292 5.63019C6.36942 5.64023 6.29864 5.66472 6.23464 5.70224Z" fill="#161722"/>
</svg>
